<svg width="30" height="31" xmlns="http://www.w3.org/2000/svg">
 <!-- Created with Method Draw - http://github.com/duopixel/Method-Draw/ -->
 <g>
  <title>background</title>
  <rect fill="#ffffff" id="canvas_background" height="33" width="32" y="-1" x="-1"/>
  <g display="none" overflow="visible" y="0" x="0" height="100%" width="100%" id="canvasGrid">
   <rect fill="url(#gridpattern)" stroke-width="0" y="0" x="0" height="100%" width="100%"/>
  </g>
 </g>
 <g>
  <title>Layer 1</title>
  <path stroke="#000000" transform="rotate(45 14.989626884460451,6.795812606811524) " id="svg_114" d="m17.96925,6.79582l-2.97963,2.98027l-2.97962,-2.98027l2.97962,-2.98028l2.97963,2.98028z" fill-opacity="null" stroke-opacity="null" stroke-width="1.5" fill="#000000"/>
  <path stroke="#000000" transform="rotate(45 5.384847640991211,6.795813560485839) " id="svg_115" d="m8.36448,6.79581l-2.97963,2.98028l-2.97963,-2.98028l2.97963,-2.98028l2.97963,2.98028z" fill-opacity="null" stroke-opacity="null" stroke-width="1.5" fill="#000000"/>
  <path stroke="#000000" transform="rotate(45 24.883512496948246,6.892524719238282) " id="svg_116" d="m27.86314,6.89252l-2.97963,2.98028l-2.97963,-2.98028l2.97963,-2.98028l2.97963,2.98028z" fill-opacity="null" stroke-opacity="null" stroke-width="1.5" fill="#000000"/>
  <path stroke="#000000" transform="rotate(45 5.336486816406261,15.662892341613764) " id="svg_117" d="m8.31612,15.66289l-2.97963,2.98028l-2.97963,-2.98028l2.97963,-2.98028l2.97963,2.98028z" fill-opacity="null" stroke-opacity="null" stroke-width="1.5" fill="#000000"/>
  <path stroke="#000000" transform="rotate(45 24.773424148559574,15.849115371704103) " id="svg_119" d="m27.75306,15.84911l-2.97963,2.98028l-2.97963,-2.98028l2.97963,-2.98028l2.97963,2.98028z" fill-opacity="null" stroke-opacity="null" stroke-width="1.5" fill="#000000"/>
  <path stroke="#000000" transform="rotate(45 15.012598037719737,15.757202148437495) " id="svg_120" d="m17.99223,15.7572l-2.97963,2.98028l-2.97963,-2.98028l2.97963,-2.98028l2.97963,2.98028z" fill-opacity="null" stroke-opacity="null" stroke-width="1.5" fill="#000000"/>
  <path stroke="#000000" transform="rotate(45 5.430797576904295,24.34615325927734) " id="svg_122" d="m8.41043,24.34615l-2.97963,2.98028l-2.97963,-2.98028l2.97963,-2.98028l2.97963,2.98028z" fill-opacity="null" stroke-opacity="null" stroke-width="1.5" fill="#000000"/>
  <path stroke="#000000" transform="rotate(45 15.012605667114268,24.39690971374511) " id="svg_125" d="m17.99224,24.39691l-2.97963,2.98028l-2.97963,-2.98028l2.97963,-2.98028l2.97963,2.98028z" fill-opacity="null" stroke-opacity="null" stroke-width="1.5" fill="#000000"/>
  <path stroke="#000000" transform="rotate(45 24.748039245605476,24.46824264526367) " id="svg_126" d="m27.72767,24.46824l-2.97963,2.98028l-2.97963,-2.98028l2.97963,-2.98028l2.97963,2.98028z" fill-opacity="null" stroke-opacity="null" stroke-width="1.5" fill="#000000"/>
 </g>
</svg>